/* XPM */
static char *_bdcd312dab6421ae19498f6f961bb31l3maXaHjn5RWmSh1[] = {
/* columns rows colors chars-per-pixel */
"32 32 2 1 ",
"  c None",
". c black",
/* pixels */
"                                ",
"                                ",
"                                ",
"                                ",
"                                ",
"                                ",
"                                ",
"                                ",
"                                ",
"                                ",
"   .....                        ",
"   .   .                        ",
"   .    . ...........           ",
"   .    ..       .   ..         ",
"   .    .        .    ..        ",
"    .. ..        .   ...        ",
"    ....         .   . .        ",
"    . ...        .    ..        ",
"    .    .       ..  ..         ",
"    .    ............           ",
"    .    .                      ",
"    ..   .                      ",
"     .....                      ",
"                                ",
"                                ",
"                                ",
"                                ",
"                                ",
"                                ",
"                                ",
"                                ",
"                                "
};
